<?xml version="1.0" standalone="no"?>
<!DOCTYPE svg PUBLIC "-//W3C//DTD SVG 20010904//EN"
 "http://www.w3.org/TR/2001/REC-SVG-20010904/DTD/svg10.dtd">
<svg version="1.0" xmlns="http://www.w3.org/2000/svg"
 width="687.000000pt" height="488.000000pt" viewBox="0 0 687.000000 488.000000"
 preserveAspectRatio="xMidYMid meet">

<g transform="translate(0.000000,488.000000) scale(0.100000,-0.100000)"
fill="#000000" stroke="none">
<path d="M3224 4871 c-71 -18 -140 -79 -169 -148 -22 -52 -19 -145 6 -198 38
-80 119 -135 201 -135 14 0 48 5 75 11 l49 11 319 -184 c176 -101 422 -242
547 -314 l227 -129 1 -340 0 -340 51 -28 c28 -16 51 -27 52 -25 1 1 1 179 -1
393 l-3 391 -87 49 c-48 27 -157 89 -242 138 -85 49 -175 101 -200 115 -59 33
-337 193 -465 267 -55 32 -116 67 -135 78 -19 10 -41 24 -47 29 -9 7 -26 3
-56 -11 -114 -55 -217 5 -217 127 0 86 45 141 125 149 74 9 135 -39 165 -129
18 -51 21 -55 112 -107 122 -70 612 -347 758 -429 63 -36 147 -83 185 -105 39
-22 97 -54 130 -73 l60 -33 6 -133 c4 -73 8 -261 8 -418 1 -157 5 -302 8 -322
4 -29 14 -43 44 -63 l39 -25 0 498 0 498 -102 58 c-57 33 -188 108 -293 167
-104 59 -318 180 -475 269 -157 89 -306 174 -331 188 -40 22 -49 32 -63 77
-22 70 -67 130 -117 155 -46 24 -119 33 -165 21z"/>
<path d="M2185 4319 c-203 -114 -400 -225 -437 -246 l-67 -38 222 -128 c122
-70 233 -134 247 -142 14 -8 108 -63 210 -121 102 -59 226 -130 275 -159 50
-28 196 -113 325 -187 433 -249 645 -371 700 -403 30 -17 192 -111 360 -207
168 -97 343 -198 390 -225 l85 -49 0 -88 0 -88 -75 -40 -75 -41 -205 118
c-113 65 -225 129 -250 143 -25 14 -151 86 -280 160 -129 74 -255 146 -280
160 -25 14 -151 86 -280 160 -129 74 -255 146 -280 160 -25 14 -151 86 -280
160 -129 74 -255 146 -280 160 -25 14 -151 86 -280 160 -129 74 -255 146 -280
159 -25 14 -60 34 -78 45 -18 11 -35 19 -36 17 -2 -2 -6 -223 -8 -490 l-4
-486 115 -69 c64 -37 159 -93 211 -124 52 -31 178 -105 280 -165 102 -59 228
-134 280 -165 52 -32 178 -106 280 -165 405 -236 393 -228 418 -284 46 -99
144 -160 240 -147 126 17 212 113 212 236 0 69 -26 127 -74 167 -49 40 -96 53
-195 53 l-82 0 -107 63 c-59 35 -150 88 -202 119 -52 30 -160 93 -240 140 -80
47 -206 120 -280 163 -74 43 -178 104 -230 135 -52 31 -146 86 -207 121 l-113
64 0 163 c0 90 3 161 8 159 4 -3 223 -127 487 -277 772 -438 1215 -690 1783
-1014 l223 -127 197 117 c108 65 209 124 224 133 l28 16 0 241 0 242 -92 54
c-51 30 -185 108 -298 173 -113 65 -252 146 -310 180 -58 34 -202 117 -320
185 -118 68 -321 185 -450 260 -129 75 -327 190 -440 255 -113 65 -252 146
-310 180 -58 34 -144 84 -192 111 -48 27 -88 52 -88 55 0 13 274 170 288 164
12 -4 146 -81 617 -355 44 -26 184 -106 310 -179 417 -240 381 -215 421 -299
28 -59 44 -79 80 -102 83 -52 165 -51 255 3 109 65 147 188 94 300 -31 67 -76
105 -146 123 -47 12 -124 7 -172 -11 -12 -5 -76 28 -215 110 -108 65 -222 132
-252 150 -30 17 -248 146 -485 287 -236 140 -450 266 -475 280 l-45 25 -370
-208z m890 -201 c493 -287 719 -419 864 -505 69 -42 76 -43 105 -31 78 32 188
1 221 -62 46 -88 -25 -198 -132 -207 -81 -7 -142 47 -153 135 l-5 44 -105 61
c-102 58 -236 136 -450 262 -58 34 -177 104 -265 155 -88 51 -241 140 -340
198 -99 58 -198 115 -220 128 l-40 22 -170 -99 c-93 -54 -203 -118 -243 -141
-51 -30 -70 -45 -60 -51 26 -16 650 -378 908 -527 146 -85 398 -231 560 -325
162 -94 414 -240 560 -325 146 -84 312 -181 370 -215 58 -34 126 -74 153 -89
l47 -27 0 -182 c0 -100 -4 -187 -8 -193 -4 -5 -80 -54 -170 -108 l-162 -98
-208 118 c-196 112 -288 164 -602 344 -74 43 -425 243 -780 445 -355 202 -721
411 -815 465 -93 53 -180 102 -192 109 l-23 12 0 -275 0 -274 178 -103 c97
-56 227 -131 287 -167 61 -35 139 -82 175 -102 916 -533 859 -502 892 -491 44
15 114 14 147 -3 45 -23 65 -63 66 -128 0 -49 -4 -61 -30 -88 -35 -36 -90 -55
-137 -46 -56 10 -108 79 -108 141 0 25 49 -5 -630 387 -702 406 -806 465 -867
499 l-63 34 0 378 c0 241 4 377 10 377 5 0 114 -59 242 -131 128 -72 278 -156
333 -187 55 -30 125 -70 155 -87 30 -17 102 -58 160 -90 58 -32 134 -75 170
-95 36 -21 92 -52 125 -70 33 -18 112 -62 175 -98 63 -35 174 -97 245 -137 72
-40 348 -194 613 -344 266 -149 488 -271 492 -271 5 0 39 18 77 40 37 22 92
52 121 67 l52 27 0 136 0 135 -122 71 c-115 67 -636 369 -758 439 -148 86
-445 258 -530 307 -133 77 -257 149 -540 313 -135 78 -306 177 -380 220 -74
43 -189 110 -255 148 -66 38 -124 72 -128 77 -5 4 132 85 305 180 172 95 322
179 333 186 11 7 27 11 35 8 8 -3 240 -136 515 -296z"/>
<path d="M1716 2285 c-132 -47 -200 -198 -146 -323 26 -61 94 -126 141 -136
47 -9 105 -7 154 5 41 10 46 9 112 -29 37 -21 104 -60 148 -84 227 -128 607
-343 857 -485 177 -101 182 -102 238 -62 14 9 196 119 405 244 209 125 381
229 383 230 2 2 -17 13 -43 24 l-47 21 -62 -37 c-80 -47 -119 -70 -444 -257
l-272 -157 -118 67 c-126 72 -203 115 -382 216 -63 36 -256 145 -428 242 -297
169 -314 177 -344 167 -113 -40 -223 24 -223 128 0 100 95 179 184 152 55 -16
98 -60 112 -114 14 -51 -25 -24 449 -302 124 -73 345 -203 492 -289 l268 -158
172 103 c316 188 423 252 462 277 l40 25 -45 23 c-24 13 -50 23 -57 24 -8 0
-73 -35 -145 -79 -338 -202 -423 -251 -436 -251 -14 0 -140 67 -321 170 -109
63 -214 121 -506 284 l-280 156 -17 53 c-43 134 -170 199 -301 152z"/>
<path d="M73 703 l-73 -4 0 -339 0 -340 70 0 70 0 0 99 0 98 98 5 c190 9 292
95 292 245 -1 101 -48 171 -144 213 -51 23 -165 32 -313 23z m264 -142 c33
-16 44 -27 52 -56 17 -61 2 -103 -49 -138 -18 -13 -46 -17 -112 -17 l-88 0 0
115 0 115 78 0 c54 0 89 -6 119 -19z"/>
<path d="M5765 696 c-165 -52 -251 -169 -249 -341 2 -160 84 -275 231 -324 77
-26 204 -28 305 -5 l70 16 -7 57 c-4 31 -9 58 -11 60 -2 3 -39 -1 -82 -7 -118
-18 -180 -15 -237 12 -27 13 -60 34 -72 47 -32 36 -57 122 -49 174 20 152 142
217 341 183 50 -9 93 -13 97 -9 4 3 10 34 13 67 l7 61 -76 12 c-99 14 -230 13
-281 -3z"/>
<path d="M570 635 l0 -65 120 0 120 0 0 -275 0 -275 70 0 70 0 0 275 0 275
120 0 120 0 0 65 0 65 -310 0 -310 0 0 -65z"/>
<path d="M1270 360 l0 -340 70 0 70 0 0 340 0 340 -70 0 -70 0 0 -340z"/>
<path d="M1800 360 l0 -340 70 0 70 0 2 217 3 217 40 -51 c22 -28 99 -125 170
-216 l130 -166 68 0 67 -1 0 340 0 340 -70 0 -70 0 0 -215 c0 -118 -3 -215 -8
-215 -4 0 -84 97 -177 215 l-170 215 -62 0 -63 0 0 -340z"/>
<path d="M2570 360 l0 -340 250 0 250 0 0 65 0 65 -180 0 -180 0 0 75 0 75
154 0 c168 0 166 -1 166 60 0 61 2 60 -166 60 l-154 0 0 75 0 75 180 0 180 0
0 65 0 65 -250 0 -250 0 0 -340z"/>
<path d="M3185 598 c18 -57 59 -182 90 -278 32 -96 66 -203 77 -237 l19 -63
67 0 67 0 63 178 c34 97 68 194 74 215 6 20 14 37 17 37 4 0 28 -62 54 -137
27 -76 61 -172 75 -213 l28 -75 66 -3 67 -3 104 318 c57 175 107 328 111 341
7 21 6 22 -68 22 -63 0 -75 -3 -80 -17 -25 -91 -130 -420 -136 -426 -4 -5 -29
56 -55 135 -26 78 -61 180 -77 226 l-30 82 -59 0 c-32 0 -59 -1 -59 -2 0 -9
-140 -420 -148 -434 -10 -17 -11 -13 -117 319 l-38 117 -72 0 -73 0 33 -102z"/>
<path d="M4220 635 l0 -65 120 0 120 0 0 -275 0 -275 70 0 70 0 0 275 0 275
120 0 120 0 0 65 0 65 -310 0 -310 0 0 -65z"/>
<path d="M4920 360 l0 -340 250 0 250 0 0 65 0 65 -180 0 -180 0 0 75 0 74
158 3 157 3 0 55 0 55 -157 3 -158 3 0 74 0 75 180 0 180 0 0 65 0 65 -250 0
-250 0 0 -340z"/>
<path d="M6260 360 l0 -340 70 0 70 0 0 135 0 135 160 0 160 0 0 -135 0 -135
70 0 70 0 0 340 0 340 -70 0 -70 0 0 -143 0 -143 -160 -2 -160 -3 0 146 0 145
-70 0 -70 0 0 -340z"/>
</g>
</svg>
