<svg id="Ebene_1" data-name="Ebene 1" xmlns="http://www.w3.org/2000/svg" viewBox="0 0 566.93 82.89"><defs><style>.cls-1{fill:#003780;}</style></defs><title>Logo_Junbunzlauer</title><path class="cls-1" d="M56.16,81.81c0,15.39-10,20.06-20.82,20.06-10.53,0-19-4.8-21.17-15.57l14-1.82c.34,3.75,1.66,8,7.33,8,4,0,6.2-2.21,7-6.82a42.33,42.33,0,0,0,.41-6.86V37.16H56.16Z" transform="translate(-14.17 -37.16)"/><path class="cls-1" d="M91.34,96.14c-3.85,3.2-8.6,5.73-13.68,5.73s-12-3-12-14.33V55H77.74V82.63c0,3.68-.24,9.5,5,9.5,3.52,0,6.31-2.54,8.6-5V55h12.12v45.87H91.34Z" transform="translate(-14.17 -37.16)"/><path class="cls-1" d="M125.29,59.77C129.14,56.57,133.9,54,139,54s12,3,12,14.33v32.52H138.89V73.28c0-3.68.24-9.5-5-9.5-3.53,0-6.31,2.54-8.61,5v32.11H113.17V55h12.12Z" transform="translate(-14.17 -37.16)"/><path class="cls-1" d="M207.83,37.16H220V59.52c3.44-3,6.39-5.48,11.3-5.48,6.64,0,16.8,5.81,16.8,22.77,0,19.33-8.52,25.06-17.78,25.06-5.08,0-7.95-1.55-11.63-4.83l-1.07,3.85h-9.75ZM220,86.84c1.88,2.87,4.26,5.41,7.86,5.41,7.29,0,8.36-9,8.36-14.5,0-5.08-1.4-13.6-8.11-13.6-3.52,0-6,2.46-8.11,5Z" transform="translate(-14.17 -37.16)"/><path class="cls-1" d="M281,96.14c-3.85,3.2-8.6,5.73-13.68,5.73s-12-3-12-14.33V55H267.4V82.63c0,3.68-.24,9.5,5,9.5,3.52,0,6.31-2.54,8.6-5V55h12.12v45.87H281Z" transform="translate(-14.17 -37.16)"/><path class="cls-1" d="M314.93,59.77c3.84-3.2,8.6-5.73,13.67-5.73s12,3,12,14.33v32.52H328.52V73.28c0-3.68.25-9.5-5-9.5-3.53,0-6.31,2.54-8.6,5v32.11H302.8V55h12.13Z" transform="translate(-14.17 -37.16)"/><path class="cls-1" d="M384.48,63.46,362.62,91.62h21.86v9.27H348V92.54l22-28.42H349.33V55h35.15Z" transform="translate(-14.17 -37.16)"/><path class="cls-1" d="M404.62,100.89H392.49V37.16h12.13Z" transform="translate(-14.17 -37.16)"/><path class="cls-1" d="M439.3,96.71c-4.51,3.2-7.53,5.16-13.35,5.16-7.94,0-14.41-5.4-14.41-13.59,0-13,17.36-15.57,27.11-16.63.81-6.39-1.48-9-6-9-3.85,0-6.8,2-7.45,6.06l-11.63-1.8c2.7-8.64,9.25-12.86,18.83-12.86,12.38,0,18,5.89,18,14.49V91.31c0,3.27.16,6.55,1.63,9.58H440.61Zm-.65-17.43c-5.51.11-15.39,2-15.39,8.75,0,2.7,1.63,4.91,4.49,4.91,5,0,8.6-2.94,10.9-6Z" transform="translate(-14.17 -37.16)"/><path class="cls-1" d="M485.26,96.14c-3.85,3.2-8.6,5.73-13.68,5.73s-12-3-12-14.33V55h12.12V82.63c0,3.68-.24,9.5,5,9.5,3.52,0,6.31-2.54,8.6-5V55h12.13v45.87H485.26Z" transform="translate(-14.17 -37.16)"/><path class="cls-1" d="M517,80.82c-.4,5.57,3,12.12,9.18,12.12,4.34,0,6.72-3.52,7.62-7.36l11.22,2c-2.62,9.09-11.38,14.25-20.06,14.25-13.36,0-20.16-11.79-20.16-23.92S511.55,54,525,54c11.54,0,20.39,5.48,20.06,26.78Zm16.14-7.62c0-5.15-2-10.23-7.86-10.23-5.49,0-7.7,5.32-7.86,10.23Z" transform="translate(-14.17 -37.16)"/><path class="cls-1" d="M564.8,63c2.9-5.48,8.44-9,14-9h2.29V66.16c-7.73-1.3-16.3,2.37-16.3,14.58v20.15H552.68V55H564.8Z" transform="translate(-14.17 -37.16)"/><path class="cls-1" d="M186.27,98.94V96.23c-3.44,3-6.55,5.65-11.46,5.65-6.64,0-16.79-5.81-16.79-22.77C158,59.77,166.54,54,175.79,54c5.08,0,8,1.55,11.63,4.83L188.49,55h9.82v42.1c0,17.37-8.95,22.93-21.14,22.93-15.77,0-18.8-11.79-18.8-11.79l12.79-1.45s.62,4.87,6.62,4.87C184.55,111.68,186.27,106.31,186.27,98.94Zm-.16-30.1c-1.88-2.87-4.26-5.41-7.86-5.41-7.29,0-8.36,9-8.36,14.5,0,5.08,1.4,13.6,8.11,13.6,3.53,0,6-2.46,8.11-5Z" transform="translate(-14.17 -37.16)"/></svg>